<?xml version="1.0" encoding="UTF-8" standalone="no"?>
<svg
   width="9.7110004"
   height="16.000463"
   viewBox="0 0 2.5693689 4.233456"
   version="1.1"
   id="svg5"
   xml:space="preserve"
   sodipodi:docname="logo.svg"
   inkscape:version="1.2.1 (9c6d41e, 2022-07-14)"
   xmlns:inkscape="http://www.inkscape.org/namespaces/inkscape"
   xmlns:sodipodi="http://sodipodi.sourceforge.net/DTD/sodipodi-0.dtd"
   xmlns="http://www.w3.org/2000/svg"
   xmlns:svg="http://www.w3.org/2000/svg"><sodipodi:namedview
     id="namedview186"
     pagecolor="#ffffff"
     bordercolor="#000000"
     borderopacity="0.25"
     inkscape:showpageshadow="2"
     inkscape:pageopacity="0.0"
     inkscape:pagecheckerboard="0"
     inkscape:deskcolor="#d1d1d1"
     showgrid="false"
     inkscape:zoom="14.75"
     inkscape:cx="4.8813559"
     inkscape:cy="8"
     inkscape:window-width="1309"
     inkscape:window-height="430"
     inkscape:window-x="304"
     inkscape:window-y="425"
     inkscape:window-maximized="0"
     inkscape:current-layer="svg5" /><defs
     id="defs2" /><g
     id="layer1"
     transform="translate(-52.737865,-11.887011)"><path
       style="fill:#000000;stroke-width:0.00388108"
       d="m 53.977279,16.094018 c -0.214889,-0.130577 -0.392152,-0.336915 -0.480117,-0.558867 -0.01514,-0.0382 -0.03926,-0.116503 -0.04692,-0.152333 l -0.0023,-0.01067 h -0.355047 -0.355047 v -1.529151 -1.529151 h 0.0088 c 0.01684,0 0.09891,0.05333 0.174898,0.113645 0.05182,0.04113 0.137671,0.125491 0.184528,0.181318 0.193377,0.230396 0.304401,0.508069 0.335968,0.840257 0.01477,0.155404 0.01897,0.194281 0.03712,0.343477 0.0175,0.143908 0.04656,0.408699 0.04656,0.424287 0,0.0056 -0.0048,0.0065 -0.03411,0.0065 -0.05351,0 -0.09393,0.01358 -0.13855,0.04654 -0.09681,0.07152 -0.118655,0.1864 -0.05218,0.274449 0.01656,0.02194 0.056,0.05346 0.09608,0.07681 0.01673,0.0097 0.02385,0.01607 0.02239,0.01989 -0.0138,0.03596 -0.04141,0.142133 -0.04707,0.181017 -0.0015,0.01017 -0.0041,0.01934 -0.0058,0.02039 -0.0049,0.003 -0.07527,-0.0271 -0.107826,-0.04623 -0.0979,-0.05752 -0.160421,-0.136516 -0.19228,-0.242972 -0.01489,-0.04977 -0.01921,-0.07896 -0.01895,-0.128076 4.74e-4,-0.08912 0.02785,-0.166339 0.08664,-0.24436 0.02917,-0.03871 0.06098,-0.06773 0.109224,-0.09964 0.02078,-0.01375 0.03955,-0.02831 0.04172,-0.03236 0.0064,-0.01195 0.0048,-0.03593 -0.0114,-0.167896 -0.02078,-0.16964 -0.03335,-0.280278 -0.04287,-0.377512 -0.0044,-0.04483 -0.01069,-0.09984 -0.014,-0.122254 -0.0215,-0.145855 -0.08588,-0.334032 -0.155438,-0.454334 -0.02569,-0.04444 -0.101736,-0.16276 -0.104604,-0.16276 -8.31e-4,0 -0.0015,0.543159 -0.0015,1.20702 v 1.207021 h 0.436624 0.436624 v 0.09703 0.09703 h -0.07374 c -0.04056,0 -0.07374,6.01e-4 -0.07374,0.0013 0,6.93e-4 0.0059,0.02297 0.01322,0.04948 0.03624,0.132146 0.107391,0.260637 0.197012,0.355782 0.01055,0.0112 0.02,0.02038 0.02098,0.02038 9.79e-4,0 0.0013,-0.150673 7.56e-4,-0.334829 l -10e-4,-0.334828 -0.01316,-0.02673 c -0.02458,-0.04992 -0.07943,-0.09271 -0.144993,-0.113113 -0.01969,-0.0061 -0.02232,-0.0081 -0.02232,-0.01706 0,-0.0307 0.02476,-0.177295 0.03106,-0.183919 0.0039,-0.0041 0.04839,0.0102 0.07853,0.02526 0.02965,0.01482 0.08852,0.0549 0.139722,0.09513 l 0.04167,0.03274 0.04565,-0.03576 c 0.05158,-0.0404 0.105267,-0.0767 0.13686,-0.09254 0.02918,-0.01463 0.07375,-0.0289 0.07753,-0.02483 0.0062,0.0067 0.03114,0.15559 0.03114,0.185768 0,0.0067 -0.0043,0.0096 -0.02232,0.01521 -0.06629,0.02062 -0.120308,0.06297 -0.145846,0.114339 l -0.01425,0.02866 v 0.33587 0.33587 l 0.01016,-0.0094 c 0.02051,-0.01899 0.07498,-0.08817 0.101522,-0.128941 0.03146,-0.04833 0.06397,-0.112774 0.0836,-0.165728 0.016,-0.04317 0.03787,-0.122611 0.03464,-0.125841 -0.0012,-0.0012 -0.03426,-0.0022 -0.07339,-0.0022 h -0.07115 v -0.09703 -0.09703 h 0.436624 0.436625 V 13.97107 c 0,-0.663861 -8.31e-4,-1.20702 -0.0019,-1.20702 -0.0032,0 -0.0539,0.07737 -0.09024,0.137779 -0.07988,0.132789 -0.140659,0.300299 -0.167585,0.46185 -0.0043,0.02562 -0.01226,0.09198 -0.01776,0.147482 -0.01023,0.10323 -0.02296,0.214499 -0.04676,0.40861 -0.01617,0.131946 -0.017,0.127025 0.02607,0.154551 0.09617,0.06146 0.162306,0.14836 0.191978,0.252268 0.01339,0.04688 0.01662,0.12064 0.0075,0.170368 -0.02518,0.136841 -0.09553,0.236468 -0.215685,0.305463 -0.01724,0.0099 -0.0913,0.04189 -0.09698,0.04189 -0.0016,0 -0.005,-0.01091 -0.0076,-0.02426 -0.0069,-0.03589 -0.03082,-0.128203 -0.0412,-0.158706 -0.005,-0.01464 -0.0078,-0.02662 -0.0062,-0.02662 0.0077,0 0.08645,-0.05558 0.104372,-0.07369 0.07418,-0.07494 0.07043,-0.188974 -0.0087,-0.265908 -0.05146,-0.05001 -0.09274,-0.06839 -0.15926,-0.07094 l -0.04283,-0.0016 0.01262,-0.120893 c 0.0069,-0.06649 0.02221,-0.20123 0.03393,-0.299422 0.02365,-0.198135 0.02669,-0.22604 0.03534,-0.324071 0.01153,-0.130738 0.03122,-0.241034 0.06192,-0.346921 0.09335,-0.321971 0.287869,-0.593139 0.552784,-0.770619 0.05095,-0.03414 0.07409,-0.04679 0.08555,-0.04679 h 0.0079 v 1.529151 1.529151 h -0.355047 -0.355047 l -0.0024,0.01067 c -0.05581,0.245193 -0.186111,0.450894 -0.391192,0.617569 -0.0487,0.03958 -0.126414,0.09167 -0.167346,0.112166 l -0.01552,0.0078 z m -0.550889,-1.06432 c 0.01232,-0.286184 0.102682,-0.527559 0.276791,-0.739363 0.03808,-0.04632 0.0501,-0.06701 0.07433,-0.127888 0.08022,-0.20159 0.113072,-0.447285 0.101909,-0.762063 -0.0024,-0.06715 -0.0069,-0.192822 -0.01011,-0.279274 -0.01723,-0.468269 -0.02592,-0.76825 -0.02389,-0.824732 0.0031,-0.08722 0.01779,-0.155516 0.04885,-0.227566 0.0273,-0.06334 0.07768,-0.139203 0.111899,-0.168492 l 0.01555,-0.01331 0.02424,0.02592 c 0.06293,0.06727 0.115199,0.172289 0.135615,0.272468 0.01484,0.07284 0.01631,0.117443 0.0099,0.301158 -0.0033,0.09392 -0.0094,0.277304 -0.01372,0.407514 -0.0043,0.130211 -0.01061,0.305733 -0.01407,0.39005 -0.0065,0.159644 -0.0056,0.322697 0.0024,0.413337 0.01691,0.191361 0.05564,0.358013 0.116708,0.502099 0.01052,0.02482 0.01912,0.04653 0.01912,0.04825 0,0.0017 0.01009,0.01486 0.02243,0.0292 0.149521,0.173724 0.245035,0.382519 0.280216,0.612556 0.0082,0.05337 0.01774,0.192669 0.0137,0.199209 -0.0016,0.0025 -0.04266,0.0039 -0.11418,0.0039 h -0.111742 l -0.0023,-0.05142 c -0.0048,-0.109221 -0.03474,-0.267485 -0.06697,-0.354149 -0.05299,-0.142508 -0.129392,-0.260832 -0.242815,-0.376063 l -0.05691,-0.05781 -0.01847,0.01318 c -0.03099,0.02211 -0.09359,0.08393 -0.126922,0.125332 -0.09541,0.118517 -0.160111,0.256198 -0.19261,0.409856 -0.01466,0.06932 -0.02856,0.172668 -0.03106,0.230925 l -0.0025,0.05822 -0.114098,10e-4 -0.114098,10e-4 z"
       id="path302" /></g></svg>
